<svg xmlns="http://www.w3.org/2000/svg" width="140" height="48" viewBox="0 0 140 48">
    <g fill="#2EA8E6" fill-rule="evenodd">
        <path d="M36.593 24.876c-.272-.623-.72-1.143-1.345-1.56-.625-.414-1.458-.775-2.495-1.081-1.04-.305-2.313-.679-3.824-1.12-.92-.267-1.623-.55-2.106-.842-.484-.294-.725-.685-.725-1.174 0-.563.24-.96.725-1.192.483-.232 1.199-.349 2.141-.349.992 0 1.73.19 2.212.569.484.378.785.985.903 1.816h4.426c-.119-1.86-.757-3.314-1.912-4.365C33.437 14.527 31.607 14 29.106 14c-1.369 0-2.525.142-3.469.422-.943.28-1.712.655-2.301 1.119-.59.465-1.022 1.002-1.291 1.614a4.72 4.72 0 0 0-.408 1.944c0 .758.1 1.443.301 2.053.2.612.59 1.176 1.168 1.689.578.513 1.386.983 2.425 1.412 1.038.427 2.407.838 4.106 1.228.944.22 1.646.476 2.107.771.459.293.69.77.69 1.43 0 .586-.313 1.021-.938 1.301-.626.282-1.375.422-2.249.422-1.038 0-1.882-.231-2.53-.696-.65-.465-.973-1.124-.973-1.981H21c.023.954.23 1.815.62 2.586.387.77.943 1.431 1.663 1.98.72.55 1.587.972 2.602 1.266 1.014.294 2.147.44 3.398.44 2.548 0 4.472-.531 5.77-1.595C36.35 30.341 37 29.002 37 27.389c0-1.052-.135-1.89-.407-2.513M45.987 29.589c-1.52 0-2.28-.673-2.28-2.017 0-.782.251-1.38.76-1.797.506-.416 1.435-.759 2.787-1.028.868-.171 1.531-.329 1.99-.475.46-.148.81-.343 1.05-.588l-.035 1.98c0 .539-.116 1.046-.344 1.522a4.26 4.26 0 0 1-.905 1.248c-.375.354-.82.636-1.34.844-.52.207-1.081.31-1.683.31m4.315 1.35v1.585H55V21.115c0-1.124-.132-2.132-.397-3.025-.267-.893-.696-1.638-1.285-2.237-.592-.6-1.377-1.058-2.353-1.376-.979-.318-2.167-.477-3.566-.477-1.425 0-2.63.153-3.62.459-.99.305-1.792.74-2.408 1.301a4.938 4.938 0 0 0-1.34 2.019 8.27 8.27 0 0 0-.452 2.567h4.38c.12-.807.417-1.455.887-1.943.47-.49 1.25-.734 2.336-.734.916 0 1.646.164 2.189.495.544.33.815.789.815 1.375 0 .636-.206 1.094-.616 1.376-.41.281-1.207.508-2.388.677a54.883 54.883 0 0 0-3.277.57c-1.001.208-1.864.531-2.588.97a4.625 4.625 0 0 0-1.702 1.817c-.411.77-.615 1.804-.615 3.1 0 1.466.477 2.658 1.43 3.576.952.917 2.455 1.375 4.508 1.375 1.205 0 2.267-.19 3.184-.568.903-.374 1.627-.871 2.18-1.493M66.38 18.8c.45 0 .177-.007.62-.002v-4.752a14.48 14.48 0 0 0-1.375.07c-.477.05-.948.165-1.412.348a5.493 5.493 0 0 0-1.356.787c-.44.342-.861.817-1.262 1.426V14H57v18h4.897v-8.847c0-2.902 1.493-4.353 4.482-4.353M67 14v.005c.049 0 .097-.005.144-.005H67zM106 18.798v-4.752c-.47.003-.93.025-1.376.07-.477.05-.947.165-1.412.348a5.442 5.442 0 0 0-1.355.787c-.44.342-.862.817-1.262 1.426V14H96v18h4.896v-8.847c0-2.902 1.494-4.353 4.482-4.353.452 0 .178-.007.622-.002M106 14v.005c.048 0 .094-.005.144-.005H106zM128.637 26.428l2.23-2.32L134.69 32h5.168l-5.699-11.108L140 14.43h-5.629l-5.734 6.678V8H124v24h4.637zM78.258 25.664a3.47 3.47 0 0 1-.344 1.522c-.23.477-.531.894-.905 1.248s-.82.636-1.339.844c-.52.208-1.08.311-1.683.311-1.52 0-2.281-.673-2.281-2.017 0-.782.253-1.38.76-1.797.508-.415 1.437-.758 2.788-1.028.869-.171 1.533-.329 1.99-.475.459-.148.809-.343 1.05-.588l-.036 1.98zm.043 6.86H83V21.115c0-1.124-.133-2.132-.398-3.024-.265-.893-.694-1.638-1.286-2.238-.59-.6-1.375-1.058-2.352-1.375-.977-.318-2.167-.478-3.566-.478-1.424 0-2.63.154-3.62.46-.99.304-1.791.74-2.407 1.3a4.926 4.926 0 0 0-1.339 2.02c-.278.781-.428 1.636-.453 2.567h4.38c.121-.808.416-1.456.888-1.944.47-.49 1.248-.734 2.334-.734.917 0 1.647.165 2.19.495.543.33.815.79.815 1.375 0 .636-.206 1.095-.615 1.376-.412.281-1.207.508-2.39.677a54.755 54.755 0 0 0-3.276.57c-1.002.208-1.865.532-2.59.971a4.64 4.64 0 0 0-1.7 1.816c-.41.77-.615 1.805-.615 3.1 0 1.466.477 2.658 1.43 3.576.952.917 2.455 1.375 4.508 1.375 1.206 0 2.268-.19 3.185-.568.9-.373 1.625-.87 2.178-1.493v1.585zM117.258 25.664c0 .54-.114 1.046-.344 1.522a4.25 4.25 0 0 1-.904 1.248 4.204 4.204 0 0 1-1.34.844c-.52.208-1.08.311-1.683.311-1.52 0-2.281-.673-2.281-2.017 0-.782.253-1.38.76-1.797.507-.415 1.435-.758 2.788-1.028.87-.171 1.531-.329 1.99-.475.458-.148.81-.343 1.05-.588l-.036 1.98zM122 30.816v-9.7c0-1.125-.133-2.133-.398-3.025-.266-.893-.695-1.638-1.284-2.238-.593-.6-1.376-1.058-2.353-1.375-.978-.318-2.168-.478-3.567-.478-1.424 0-2.63.154-3.62.46-.989.304-1.791.74-2.406 1.3a4.931 4.931 0 0 0-1.34 2.02 8.277 8.277 0 0 0-.452 2.567h4.379c.122-.808.417-1.456.889-1.944.47-.49 1.247-.734 2.333-.734.916 0 1.648.165 2.19.495.543.33.814.79.814 1.375 0 .636-.205 1.095-.615 1.376-.41.281-1.207.508-2.389.677a54.751 54.751 0 0 0-3.276.57c-1 .208-1.864.532-2.588.971a4.641 4.641 0 0 0-1.701 1.816c-.41.77-.616 1.805-.616 3.1 0 1.466.477 2.658 1.43 3.576.954.917 2.456 1.375 4.507 1.375 1.206 0 2.268-.19 3.186-.568.901-.373 1.626-.87 2.178-1.493v1.585H122v-1.708zM89.474 9H85v15.946c0 .966.128 1.883.385 2.753a5.98 5.98 0 0 0 1.24 2.283c.571.653 1.3 1.172 2.186 1.557.885.388 1.931.524 3.186.435.588-.042 1.086-.129 2.003-.326v-3.95c-1.61.4-3.18.517-4.002-.51-.462-.579-.524-1.578-.524-2.713v-7.322H94V13.82h-4.526V9zM14.933 22.202L20.243 9s-5.004 2.84-9.743 2.84C5.76 11.84.757 9 .757 9l5.309 13.202L0 34.912l5.508-.034L10.5 48l4.992-13.121 5.508.033-6.067-12.71z"/>
        <path d="M15 4.5a4.5 4.5 0 1 1-9 0 4.5 4.5 0 0 1 9 0"/>
    </g>
</svg>
