<svg width="10" height="16" viewBox="0 0 10 16" version="1.1" xmlns="http://www.w3.org/2000/svg" xmlns:xlink="http://www.w3.org/1999/xlink">
<title>Shape</title>
<desc>Created using Figma</desc>
<g id="Canvas" transform="translate(-3652 -7973)">
<g id="Shape">
<use xlink:href="#path0_stroke" transform="matrix(-1 -1.22465e-16 1.22465e-16 -1 3660 7987)" fill="#FFFFFF"/>
</g>
</g>
<defs>
<path id="path0_stroke" d="M 5.29289 12.7071L 6 13.4142L 7.41421 12L 6.70711 11.2929L 5.29289 12.7071ZM 0 6L -0.707107 5.29289L -1.41421 6L -0.707107 6.70711L 0 6ZM 6.70711 0.707107L 7.41421 0L 6 -1.41421L 5.29289 -0.707107L 6.70711 0.707107ZM 6.70711 11.2929L 0.707107 5.29289L -0.707107 6.70711L 5.29289 12.7071L 6.70711 11.2929ZM 0.707107 6.70711L 6.70711 0.707107L 5.29289 -0.707107L -0.707107 5.29289L 0.707107 6.70711Z"/>
</defs>
</svg>
