<svg width="32" height="22" viewBox="0 0 32 22" version="1.1" xmlns="http://www.w3.org/2000/svg" xmlns:xlink="http://www.w3.org/1999/xlink">
<title>plus-circle</title>
<desc>Created using Figma</desc>
<g id="Canvas" transform="translate(-1890 -7529)">
<g id="plus-circle">
<g id="Vector">
<use xlink:href="#path0_stroke" transform="translate(1891 7530)" fill="#3023AE"/>
</g>
<g id="Vector">
<use xlink:href="#path1_stroke" transform="translate(1911 7530)" fill="#3023AE"/>
</g>
<g id="Vector">
<use xlink:href="#path2_stroke" transform="translate(1901 7536)" fill="#3023AE"/>
</g>
<g id="Vector">
<use xlink:href="#path3_stroke" transform="translate(1897 7540)" fill="#3023AE"/>
</g>
</g>
</g>
<defs>
<path id="path0_stroke" d="M 19 10C 19 14.9706 14.9706 19 10 19L 10 21C 16.0751 21 21 16.0751 21 10L 19 10ZM 10 19C 5.02944 19 1 14.9706 1 10L -1 10C -1 16.0751 3.92487 21 10 21L 10 19ZM 1 10C 1 5.02944 5.02944 1 10 1L 10 -1C 3.92487 -1 -1 3.92487 -1 10L 1 10ZM 10 1C 14.9706 1 19 5.02944 19 10L 21 10C 21 3.92487 16.0751 -1 10 -1L 10 1Z"/>
<path id="path1_stroke" d="M 9 10C 9 14.9706 4.97056 19 0 19L 0 21C 6.07513 21 11 16.0751 11 10L 9 10ZM 0 1C 4.97056 1 9 5.02944 9 10L 11 10C 11 3.92487 6.07513 -1 0 -1L 0 1Z"/>
<path id="path2_stroke" d="M -1 0L -1 8L 1 8L 1 0L -1 0Z"/>
<path id="path3_stroke" d="M 0 1L 8 1L 8 -1L 0 -1L 0 1Z"/>
</defs>
</svg>
