<svg width="177" height="387" viewBox="0 0 177 387" version="1.1" xmlns="http://www.w3.org/2000/svg" xmlns:xlink="http://www.w3.org/1999/xlink">
<title>Group</title>
<desc>Created using Figma</desc>
<g id="Canvas" transform="matrix(3 0 0 3 -195 -15360)">
<g id="Group" filter="url(#filter0_d)">
<g id="Rectangle 9">
<use xlink:href="#path0_fill" transform="translate(79.2326 5124)" fill="#F2C94C"/>
<mask id="mask0_outline_ins">
<use xlink:href="#path0_fill" fill="white" transform="translate(79.2326 5124)"/>
</mask>
<g mask="url(#mask0_outline_ins)">
<use xlink:href="#path1_stroke_2x" transform="translate(79.2326 5124)" fill="#F2994A"/>
</g>
</g>
<g id="Vector 2">
<use xlink:href="#path2_fill" transform="translate(101.233 5125)" fill="#EB5757" fill-opacity="0.2"/>
</g>
<g id="Rectangle 10">
<use xlink:href="#path3_fill" transform="translate(79.2326 5138)"/>
</g>
<g id="Rectangle 11">
<use xlink:href="#path4_fill" transform="matrix(0.866025 0.5 -0.5 0.866025 113.233 5138)" fill="#F2C94C"/>
<mask id="mask1_outline_ins">
<use xlink:href="#path4_fill" fill="white" transform="matrix(0.866025 0.5 -0.5 0.866025 113.233 5138)"/>
</mask>
<g mask="url(#mask1_outline_ins)">
<use xlink:href="#path5_stroke_2x" transform="matrix(0.866025 0.5 -0.5 0.866025 113.233 5138)" fill="#F2994A"/>
</g>
</g>
<g id="Rectangle 11">
<use xlink:href="#path4_fill" transform="matrix(0.866025 0.5 -0.5 0.866025 113.233 5138)" fill="#EB5757" fill-opacity="0.2"/>
</g>
<g id="Rectangle 11">
<use xlink:href="#path4_fill" transform="matrix(-0.866025 0.5 0.5 0.866025 76.3301 5138)" fill="#F2C94C"/>
<mask id="mask2_outline_ins">
<use xlink:href="#path4_fill" fill="white" transform="matrix(-0.866025 0.5 0.5 0.866025 76.3301 5138)"/>
</mask>
<g mask="url(#mask2_outline_ins)">
<use xlink:href="#path5_stroke_2x" transform="matrix(-0.866025 0.5 0.5 0.866025 76.3301 5138)" fill="#F2994A"/>
</g>
</g>
<g id="Rectangle 9">
<use xlink:href="#path6_fill" transform="translate(77.2326 5141)" fill="#F2C94C"/>
<mask id="mask3_outline_ins">
<use xlink:href="#path6_fill" fill="white" transform="translate(77.2326 5141)"/>
</mask>
<g mask="url(#mask3_outline_ins)">
<use xlink:href="#path7_stroke_2x" transform="translate(77.2326 5141)" fill="#F2994A"/>
</g>
</g>
<g id="Rectangle 13">
<use xlink:href="#path8_fill" transform="translate(107.233 5141)" fill="#EB5757" fill-opacity="0.2"/>
</g>
<g id="Rectangle 12">
<use xlink:href="#path9_fill" transform="translate(82 5218)" fill="#EB5757" fill-opacity="0.1"/>
</g>
<g id="Rectangle 12">
<use xlink:href="#path10_fill" transform="translate(80.2326 5217)" fill="#F2C94C"/>
<mask id="mask4_outline_ins">
<use xlink:href="#path10_fill" fill="white" transform="translate(80.2326 5217)"/>
</mask>
<g mask="url(#mask4_outline_ins)">
<use xlink:href="#path11_stroke_2x" transform="translate(80.2326 5217)" fill="#F2994A"/>
</g>
</g>
<g id="Group">
<g id="Rectangle 12">
<mask id="mask5_outline_ins">
<use xlink:href="#path12_fill" fill="white" transform="translate(86.2326 5181)"/>
</mask>
<g mask="url(#mask5_outline_ins)">
<use xlink:href="#path13_stroke_2x" transform="translate(86.2326 5181)" fill="#F2994A" fill-opacity="0.5"/>
</g>
</g>
<g id="Rectangle 12">
<mask id="mask6_outline_ins">
<use xlink:href="#path14_fill" fill="white" transform="translate(91.2326 5170)"/>
</mask>
<g mask="url(#mask6_outline_ins)">
<use xlink:href="#path15_stroke_2x" transform="translate(91.2326 5170)" fill="#F2994A" fill-opacity="0.5"/>
</g>
</g>
<g id="Rectangle 12">
<mask id="mask7_outline_ins">
<use xlink:href="#path14_fill" fill="white" transform="translate(96.2326 5170)"/>
</mask>
<g mask="url(#mask7_outline_ins)">
<use xlink:href="#path15_stroke_2x" transform="translate(96.2326 5170)" fill="#F2994A" fill-opacity="0.5"/>
</g>
</g>
<g id="Rectangle 12">
<mask id="mask8_outline_ins">
<use xlink:href="#path12_fill" fill="white" transform="translate(101.233 5181)"/>
</mask>
<g mask="url(#mask8_outline_ins)">
<use xlink:href="#path13_stroke_2x" transform="translate(101.233 5181)" fill="#F2994A" fill-opacity="0.5"/>
</g>
</g>
</g>
<g id="Rectangle 12">
<use xlink:href="#path16_fill" transform="translate(85.2326 5144)" fill="#EB5757" fill-opacity="0.2"/>
</g>
<g id="Rectangle 12">
<use xlink:href="#path17_fill" transform="translate(84.2326 5143)" fill="#F2C94C"/>
<mask id="mask9_outline_ins">
<use xlink:href="#path17_fill" fill="white" transform="translate(84.2326 5143)"/>
</mask>
<g mask="url(#mask9_outline_ins)">
<use xlink:href="#path18_stroke_2x" transform="translate(84.2326 5143)" fill="#F2994A"/>
</g>
</g>
</g>
</g>
<defs>
<filter id="filter0_d" filterUnits="userSpaceOnUse" x="65" y="5120" width="59" height="129" color-interpolation-filters="sRGB">
<feFlood flood-opacity="0" result="BackgroundImageFix"/>
<feColorMatrix in="SourceAlpha" type="matrix" values="0 0 0 0 0 0 0 0 0 0 0 0 0 0 0 0 0 0 255 0"/>
<feOffset dx="0" dy="4"/>
<feGaussianBlur stdDeviation="4"/>
<feColorMatrix type="matrix" values="0 0 0 0 0 0 0 0 0 0 0 0 0 0 0 0 0 0 0.15 0"/>
<feBlend mode="normal" in2="BackgroundImageFix" result="effect1_dropShadow"/>
<feBlend mode="normal" in="SourceGraphic" in2="effect1_dropShadow" result="shape"/>
</filter>
<path id="path0_fill" d="M 1.74322 3.87995C 1.89745 2.63064 2.81521 1.61049 4.04131 1.32545L 9.74286 0L 21.2571 0L 26.9587 1.32545C 28.1848 1.61049 29.1025 2.63064 29.2568 3.87995L 31 18C 31 18 28.107 18 25.6857 18C 18.249 18 5.75714 18 5.75714 18L 0 18L 1.74322 3.87995Z"/>
<path id="path1_stroke_2x" d="M 9.25468 -0.108096L 5.26897 17.8919L 6.24532 18.1081L 10.231 0.108096L 9.25468 -0.108096ZM 21.2571 0C 20.7754 0.133725 20.7754 0.133755 20.7754 0.133828C 20.7754 0.133908 20.7754 0.134022 20.7755 0.134181C 20.7756 0.134507 20.7757 0.134985 20.7759 0.135636C 20.7763 0.136953 20.7768 0.138901 20.7775 0.14152C 20.779 0.146789 20.7811 0.154617 20.784 0.165041C 20.7898 0.185949 20.7984 0.216986 20.8097 0.25789C 20.8323 0.339823 20.8656 0.46069 20.9085 0.617263C 20.9943 0.930671 21.1184 1.38571 21.2718 1.95422C 21.5787 3.09178 22.0018 4.68011 22.4684 6.48886C 23.4019 10.1075 24.5057 14.5933 25.1951 18.0966L 26.1763 17.9034C 25.4821 14.3772 24.3716 9.8631 23.4367 6.23906C 22.9691 4.42649 22.5446 2.83284 22.2373 1.69376C 22.0836 1.12393 21.959 0.666982 21.8729 0.352979C 21.8298 0.195846 21.7963 0.0741521 21.7737 -0.00804849C 21.7623 -0.0492117 21.7536 -0.0806349 21.7478 -0.10167C 21.7449 -0.112219 21.7427 -0.120233 21.7412 -0.125564C 21.7404 -0.128245 21.7399 -0.130285 21.7395 -0.131632C 21.7393 -0.132314 21.7392 -0.132837 21.7391 -0.133178C 21.739 -0.133353 21.739 -0.13349 21.739 -0.133577C 21.7389 -0.133672 21.7389 -0.133725 21.2571 0ZM 31 18L 31 19L 32.1311 19L 31.9925 17.8775L 31 18ZM 0 18L -0.992465 17.8775L -1.13105 19L 0 19L 0 18ZM 21.2571 0L 21.4836 -0.974026L 21.3718 -1L 21.2571 -1L 21.2571 0ZM 9.74286 0L 9.74286 -1L 9.62815 -1L 9.51642 -0.974026L 9.74286 0ZM 29.2568 3.87995L 30.2492 3.75743L 29.2568 3.87995ZM 4.04131 1.32545L 3.81487 0.351426L 4.04131 1.32545ZM 28.2643 4.00248L 30.0075 18.1225L 31.9925 17.8775L 30.2492 3.75743L 28.2643 4.00248ZM 0.992465 18.1225L 2.73568 4.00248L 0.750751 3.75743L -0.992465 17.8775L 0.992465 18.1225ZM 21.0307 0.974026L 26.7323 2.29948L 27.1851 0.351426L 21.4836 -0.974026L 21.0307 0.974026ZM 4.26774 2.29948L 9.96929 0.974026L 9.51642 -0.974026L 3.81487 0.351426L 4.26774 2.29948ZM 9.74286 1L 21.2571 1L 21.2571 -1L 9.74286 -1L 9.74286 1ZM 5.75714 17L 0 17L 0 19L 5.75714 19L 5.75714 17ZM 31 18C 31 17 31 17 31 17C 30.9999 17 30.9999 17 30.9999 17C 30.9998 17 30.9996 17 30.9995 17C 30.9991 17 30.9986 17 30.9979 17C 30.9965 17 30.9944 17 30.9916 17C 30.9861 17 30.9778 17 30.9669 17C 30.9451 17 30.9129 17 30.871 17C 30.7871 17 30.6647 17 30.5101 17C 30.2011 17 29.7638 17 29.2508 17C 28.2249 17 26.8963 17 25.6857 17L 25.6857 19C 26.8963 19 28.2249 19 29.2508 19C 29.7638 19 30.2011 19 30.5101 19C 30.6647 19 30.7871 19 30.871 19C 30.9129 19 30.9451 19 30.9669 19C 30.9778 19 30.9861 19 30.9916 19C 30.9944 19 30.9965 19 30.9979 19C 30.9986 19 30.9991 19 30.9995 19C 30.9996 19 30.9998 19 30.9999 19C 30.9999 19 30.9999 19 31 19C 31 19 31 19 31 18ZM 25.6857 17C 21.9674 17 16.9852 17 12.9327 17C 10.9064 17 9.11251 17 7.8252 17C 7.18154 17 6.66453 17 6.30843 17C 6.13038 17 5.99256 17 5.89925 17C 5.85259 17 5.81707 17 5.7932 17C 5.78127 17 5.77226 17 5.76623 17C 5.76321 17 5.76094 17 5.75942 17C 5.75866 17 5.75809 17 5.75771 17C 5.75752 17 5.75738 17 5.75729 17C 5.75719 17 5.75714 17 5.75714 18C 5.75714 19 5.75719 19 5.75729 19C 5.75738 19 5.75752 19 5.75771 19C 5.75809 19 5.75866 19 5.75942 19C 5.76094 19 5.76321 19 5.76623 19C 5.77226 19 5.78127 19 5.7932 19C 5.81707 19 5.85259 19 5.89925 19C 5.99256 19 6.13038 19 6.30843 19C 6.66453 19 7.18154 19 7.8252 19C 9.11251 19 10.9064 19 12.9327 19C 16.9852 19 21.9674 19 25.6857 19L 25.6857 17ZM 30.2492 3.75743C 30.0436 2.09168 28.8199 0.731471 27.1851 0.351426L 26.7323 2.29948C 27.5497 2.4895 28.1615 3.16961 28.2643 4.00248L 30.2492 3.75743ZM 2.73568 4.00248C 2.8385 3.16961 3.45034 2.4895 4.26774 2.29948L 3.81487 0.351426C 2.18008 0.731471 0.956398 2.09168 0.750751 3.75743L 2.73568 4.00248Z"/>
<path id="path2_fill" d="M 7.5 15.5L 0 0L 3.5 15L 7.5 15.5Z"/>
<path id="path3_fill" d="M 0 4C 0 2.90574 0.822451 1.68923 1.85957 1.34026C 3.56449 0.766604 6.1046 0.0373443 8 0.0373443C 14.0531 0.0373443 17.4356 -0.0466803 23.5 0.0373443C 25.2371 0.0614119 27.5524 0.75412 29.1487 1.31373C 30.1814 1.67573 31 2.90574 31 4L 0 4Z"/>
<path id="path4_fill" d="M 0 1.6359C 0 0.852341 0.791379 0.316552 1.51889 0.607558L 3.14305 1.25722C 4.26458 1.70583 5 2.79207 5 4L 0 4L 0 1.6359Z"/>
<path id="path5_stroke_2x" d="M 0 4L -1 4L -1 5L 0 5L 0 4ZM 1.1475 1.53603L 2.77166 2.1857L 3.51444 0.328742L 1.89029 -0.320919L 1.1475 1.53603ZM 5 3L 0 3L 0 5L 5 5L 5 3ZM 1 4L 1 1.6359L -1 1.6359L -1 4L 1 4ZM 2.77166 2.1857C 3.51353 2.48245 4 3.20097 4 4L 6 4C 6 2.38316 5.01563 0.92922 3.51444 0.328742L 2.77166 2.1857ZM 1.89029 -0.320919C 0.505906 -0.874671 -1 0.144877 -1 1.6359L 1 1.6359C 1 1.55981 1.07685 1.50777 1.1475 1.53603L 1.89029 -0.320919Z"/>
<path id="path6_fill" d="M 0 3C 0 1.34315 1.34315 0 3 0L 4.5 0L 30.5 0L 32 0C 33.6569 0 35 1.34315 35 3L 35 92C 35 94.2091 33.2091 96 31 96L 30.5 96L 4.5 96L 4 96C 1.79086 96 0 94.2091 0 92L 0 3Z"/>
<path id="path7_stroke_2x" d="M 5 96L 5 0L 4 0L 4 96L 5 96ZM 30 0L 30 96L 31 96L 31 0L 30 0ZM 34 3L 34 92L 36 92L 36 3L 34 3ZM 1 92L 1 3L -1 3L -1 92L 1 92ZM 4.5 95L 4 95L 4 97L 4.5 97L 4.5 95ZM 3 1L 4.5 1L 4.5 -1L 3 -1L 3 1ZM 4.5 1L 30.5 1L 30.5 -1L 4.5 -1L 4.5 1ZM 30.5 1L 32 1L 32 -1L 30.5 -1L 30.5 1ZM 31 95L 30.5 95L 30.5 97L 31 97L 31 95ZM 30.5 95L 4.5 95L 4.5 97L 30.5 97L 30.5 95ZM -1 92C -1 94.7614 1.23858 97 4 97L 4 95C 2.34315 95 1 93.6569 1 92L -1 92ZM 34 92C 34 93.6569 32.6569 95 31 95L 31 97C 33.7614 97 36 94.7614 36 92L 34 92ZM 36 3C 36 0.790861 34.2091 -1 32 -1L 32 1C 33.1046 1 34 1.89543 34 3L 36 3ZM 1 3C 1 1.89543 1.89543 1 3 1L 3 -1C 0.790861 -1 -1 0.790861 -1 3L 1 3Z"/>
<path id="path8_fill" d="M 0 0L 1 0C 3.20914 0 5 1.79086 5 4L 5 92C 5 94.2091 3.20914 96 1 96L 0 96L 0 0Z"/>
<path id="path9_fill" d="M 0 2C 0 0.895431 0.895431 0 2 0L 26 0C 27.1046 0 28 0.895431 28 2L 28 16C 28 17.1046 27.1046 18 26 18L 2 18C 0.895431 18 0 17.1046 0 16L 0 2Z"/>
<path id="path10_fill" d="M 0 2C 0 0.895431 0.895431 0 2 0L 27 0C 28.1046 0 29 0.895431 29 2L 29 15C 29 16.1046 28.1046 17 27 17L 2 17C 0.895431 17 0 16.1046 0 15L 0 2Z"/>
<path id="path11_stroke_2x" d="M 2 1L 27 1L 27 -1L 2 -1L 2 1ZM 28 2L 28 15L 30 15L 30 2L 28 2ZM 27 16L 2 16L 2 18L 27 18L 27 16ZM 1 15L 1 2L -1 2L -1 15L 1 15ZM 2 16C 1.44772 16 1 15.5523 1 15L -1 15C -1 16.6569 0.343146 18 2 18L 2 16ZM 28 15C 28 15.5523 27.5523 16 27 16L 27 18C 28.6569 18 30 16.6569 30 15L 28 15ZM 27 1C 27.5523 1 28 1.44772 28 2L 30 2C 30 0.343146 28.6569 -1 27 -1L 27 1ZM 2 -1C 0.343146 -1 -1 0.343146 -1 2L 1 2C 1 1.44772 1.44772 1 2 1L 2 -1Z"/>
<path id="path12_fill" d="M 0 1.5C 0 0.671573 0.671573 0 1.5 0C 2.32843 0 3 0.671573 3 1.5L 3 30.5C 3 31.3284 2.32843 32 1.5 32C 0.671573 32 0 31.3284 0 30.5L 0 1.5Z"/>
<path id="path13_stroke_2x" d="M 2 1.5L 2 30.5L 4 30.5L 4 1.5L 2 1.5ZM 1 30.5L 1 1.5L -1 1.5L -1 30.5L 1 30.5ZM 1.5 31C 1.22386 31 1 30.7761 1 30.5L -1 30.5C -1 31.8807 0.119288 33 1.5 33L 1.5 31ZM 2 30.5C 2 30.7761 1.77614 31 1.5 31L 1.5 33C 2.88071 33 4 31.8807 4 30.5L 2 30.5ZM 1.5 1C 1.77614 1 2 1.22386 2 1.5L 4 1.5C 4 0.119288 2.88071 -1 1.5 -1L 1.5 1ZM 1.5 -1C 0.119288 -1 -1 0.119288 -1 1.5L 1 1.5C 1 1.22386 1.22386 1 1.5 1L 1.5 -1Z"/>
<path id="path14_fill" d="M 0 1.5C 0 0.671573 0.671573 0 1.5 0C 2.32843 0 3 0.671573 3 1.5L 3 38.5C 3 39.3284 2.32843 40 1.5 40C 0.671573 40 0 39.3284 0 38.5L 0 1.5Z"/>
<path id="path15_stroke_2x" d="M 2 1.5L 2 38.5L 4 38.5L 4 1.5L 2 1.5ZM 1 38.5L 1 1.5L -1 1.5L -1 38.5L 1 38.5ZM 1.5 39C 1.22386 39 1 38.7761 1 38.5L -1 38.5C -1 39.8807 0.119288 41 1.5 41L 1.5 39ZM 2 38.5C 2 38.7761 1.77614 39 1.5 39L 1.5 41C 2.88071 41 4 39.8807 4 38.5L 2 38.5ZM 1.5 1C 1.77614 1 2 1.22386 2 1.5L 4 1.5C 4 0.119288 2.88071 -1 1.5 -1L 1.5 1ZM 1.5 -1C 0.119288 -1 -1 0.119288 -1 1.5L 1 1.5C 1 1.22386 1.22386 1 1.5 1L 1.5 -1Z"/>
<path id="path16_fill" d="M 0 2C 0 0.895431 0.895431 0 2 0L 20 0C 21.1046 0 22 0.895431 22 2L 22 19C 22 20.1046 21.1046 21 20 21L 2 21C 0.895431 21 0 20.1046 0 19L 0 2Z"/>
<path id="path17_fill" d="M 0 2C 0 0.895431 0.895431 0 2 0L 19 0C 20.1046 0 21 0.895431 21 2L 21 17C 21 18.1046 20.1046 19 19 19L 2 19C 0.895431 19 0 18.1046 0 17L 0 2Z"/>
<path id="path18_stroke_2x" d="M 2 1L 19 1L 19 -1L 2 -1L 2 1ZM 20 2L 20 17L 22 17L 22 2L 20 2ZM 19 18L 2 18L 2 20L 19 20L 19 18ZM 1 17L 1 2L -1 2L -1 17L 1 17ZM 2 18C 1.44772 18 1 17.5523 1 17L -1 17C -1 18.6569 0.343146 20 2 20L 2 18ZM 20 17C 20 17.5523 19.5523 18 19 18L 19 20C 20.6569 20 22 18.6569 22 17L 20 17ZM 19 1C 19.5523 1 20 1.44772 20 2L 22 2C 22 0.343146 20.6569 -1 19 -1L 19 1ZM 2 -1C 0.343146 -1 -1 0.343146 -1 2L 1 2C 1 1.44772 1.44772 1 2 1L 2 -1Z"/>
</defs>
</svg>
