<svg width="20" height="22" viewBox="0 0 20 22" version="1.1" xmlns="http://www.w3.org/2000/svg" xmlns:xlink="http://www.w3.org/1999/xlink">
<title>calendar</title>
<desc>Created using Figma</desc>
<g id="Canvas" transform="translate(-1010 -8051)">
<g id="calendar">
<g id="Vector">
<use xlink:href="#path0_stroke" transform="translate(1011 8054)" fill="#3023AE"/>
</g>
<g id="Vector">
<use xlink:href="#path1_stroke" transform="translate(1024 8052)" fill="#3023AE"/>
</g>
<g id="Vector">
<use xlink:href="#path1_stroke" transform="translate(1016 8052)" fill="#3023AE"/>
</g>
<g id="Vector">
<use xlink:href="#path2_stroke" transform="translate(1011 8060)" fill="#3023AE"/>
</g>
</g>
</g>
<defs>
<path id="path0_stroke" d="M 2 1L 16 1L 16 -1L 2 -1L 2 1ZM 16 1C 16.5523 1 17 1.44772 17 2L 19 2C 19 0.343146 17.6569 -1 16 -1L 16 1ZM 17 2L 17 16L 19 16L 19 2L 17 2ZM 17 16C 17 16.5523 16.5523 17 16 17L 16 19C 17.6569 19 19 17.6569 19 16L 17 16ZM 16 17L 2 17L 2 19L 16 19L 16 17ZM 2 17C 1.44772 17 1 16.5523 1 16L -1 16C -1 17.6569 0.343146 19 2 19L 2 17ZM 1 16L 1 2L -1 2L -1 16L 1 16ZM 1 2C 1 1.44772 1.44772 1 2 1L 2 -1C 0.343146 -1 -1 0.343146 -1 2L 1 2Z"/>
<path id="path1_stroke" d="M 1 0L 1 -1L -1 -1L -1 0L 1 0ZM -1 4L -1 5L 1 5L 1 4L -1 4ZM -1 0L -1 4L 1 4L 1 0L -1 0Z"/>
<path id="path2_stroke" d="M 0 -1L -1 -1L -1 1L 0 1L 0 -1ZM 18 1L 19 1L 19 -1L 18 -1L 18 1ZM 0 1L 18 1L 18 -1L 0 -1L 0 1Z"/>
</defs>
</svg>
