<svg width="23" height="22" viewBox="0 0 23 22" version="1.1" xmlns="http://www.w3.org/2000/svg" xmlns:xlink="http://www.w3.org/1999/xlink">
<title>check-circle</title>
<desc>Created using Figma</desc>
<g id="Canvas" transform="translate(-3921 -8255)">
<g id="check-circle">
<g id="Vector">
<use xlink:href="#path0_stroke" transform="translate(3922 8256)" fill="#FFFFFF"/>
</g>
<g id="Vector">
<use xlink:href="#path1_stroke" transform="translate(3929 8257.01)" fill="#FFFFFF"/>
</g>
</g>
</g>
<defs>
<path id="path0_stroke" d="M 20 10.0057L 21 10.0063L 21 10.0057L 20 10.0057ZM 19 9.07572L 19 10.0057L 21 10.0057L 21 9.07572L 19 9.07572ZM 19 10.0052C 19.0117 12.0019 18.4142 13.7972 17.2084 15.3888L 18.8103 16.5863C 20.1868 14.7236 20.9859 12.3224 21 10.0063L 19 10.0052ZM 17.2084 15.3888C 16.0231 16.9958 14.4703 18.0768 12.5518 18.6307L 13.1189 20.5486C 15.3363 19.8796 17.4132 18.4336 18.8103 16.5863L 17.2084 15.3888ZM 12.5518 18.6307C 10.6406 19.2091 8.74961 19.1463 6.88102 18.4423L 6.18792 20.3183C 8.36491 21.109 10.8942 21.193 13.1189 20.5486L 12.5518 18.6307ZM 6.88102 18.4423C 5.00355 17.7623 3.5259 16.5806 2.44987 14.8985L 0.772056 15.9871C 2.04341 17.9231 4.01981 19.5037 6.18792 20.3183L 6.88102 18.4423ZM 2.44987 14.8985C 1.35231 13.2304 0.87533 11.3994 1.01951 9.40784L -0.976156 9.27624C -1.11575 11.5881 -0.477775 14.0371 0.772056 15.9871L 2.44987 14.8985ZM 1.01951 9.40784C 1.13809 7.41455 1.85136 5.66207 3.15845 4.15252L 1.63811 2.85308C 0.143053 4.62203 -0.810966 6.96602 -0.976156 9.27624L 1.01951 9.40784ZM 3.15845 4.15252C 4.44604 2.6263 6.06607 1.64882 8.01657 1.22128L 7.57581 -0.729544C 5.3195 -0.20661 3.15266 1.10079 1.63811 2.85308L 3.15845 4.15252ZM 8.01657 1.22128C 9.96142 0.768721 11.8443 0.954752 13.663 1.77915L 14.477 -0.047704C 12.3562 -0.978631 9.83777 -1.22745 7.57581 -0.729544L 8.01657 1.22128Z"/>
<path id="path1_stroke" d="M 3 11L 2.29289 11.7071L 3 12.4142L 3.70711 11.7071L 3 11ZM 13.2929 -0.707107L 2.29289 10.2929L 3.70711 11.7071L 14.7071 0.707107L 13.2929 -0.707107ZM 3.70711 10.2929L 0.707107 7.29289L -0.707107 8.70711L 2.29289 11.7071L 3.70711 10.2929Z"/>
</defs>
</svg>
