<svg width="34" height="42" viewBox="0 0 34 42" version="1.1" xmlns="http://www.w3.org/2000/svg" xmlns:xlink="http://www.w3.org/1999/xlink">
<title>Group</title>
<desc>Created using Figma</desc>
<g id="Canvas" transform="translate(-802 -8226)">
<g id="Group">
<g id="Rectangle 16">
<use xlink:href="#path0_fill" transform="translate(803 8227)" fill="#FFFFFF"/>
<use xlink:href="#path1_stroke" transform="translate(803 8227)" fill="#2F80ED"/>
</g>
<g id="Find assets">
<use xlink:href="#path2_fill" transform="translate(807 8253)" fill="#2F80ED"/>
</g>
</g>
</g>
<defs>
<path id="path0_fill" d="M 32 40L 0 40L 0 0L 23 0L 32 9L 32 40Z"/>
<path id="path1_stroke" d="M 32 40L 32 41L 33 41L 33 40L 32 40ZM 0 40L -1 40L -1 41L 0 41L 0 40ZM 0 0L 0 -1L -1 -1L -1 0L 0 0ZM 23 0L 23.7071 -0.707107L 23.4142 -1L 23 -1L 23 0ZM 32 9L 33 9L 33 8.58579L 32.7071 8.29289L 32 9ZM 23 9L 22 9L 22 10L 23 10L 23 9ZM 32 39L 0 39L 0 41L 32 41L 32 39ZM 1 40L 1 0L -1 0L -1 40L 1 40ZM 0 1L 23 1L 23 -1L 0 -1L 0 1ZM 31 9L 31 40L 33 40L 33 9L 31 9ZM 22.2929 0.707107L 31.2929 9.70711L 32.7071 8.29289L 23.7071 -0.707107L 22.2929 0.707107ZM 24 9L 24 0L 22 0L 22 9L 24 9ZM 23 10L 32 10L 32 8L 23 8L 23 10Z"/>
<path id="path2_fill" d="M 1.45 7.28C 1.76333 7.28 2.00667 7.36 2.18 7.52C 2.36 7.68 2.45 7.90333 2.45 8.19C 2.45 8.47 2.36 8.69 2.18 8.85C 2.00667 9.01 1.76333 9.09 1.45 9.09C 1.13667 9.09 0.89 9.01 0.71 8.85C 0.536667 8.69 0.45 8.47 0.45 8.19C 0.45 7.90333 0.536667 7.68 0.71 7.52C 0.89 7.36 1.13667 7.28 1.45 7.28ZM 7.47852 9L 6.23852 6.83L 5.03852 9L 3.08852 9L 5.32852 5.68L 3.21852 2.4L 5.24852 2.4L 6.38852 4.5L 7.52852 2.4L 9.38852 2.4L 7.27852 5.63L 9.52852 9L 7.47852 9ZM 15.3694 7.67L 15.3694 9L 10.3394 9L 10.3394 2.4L 12.0594 2.4L 12.0594 7.67L 15.3694 7.67ZM 18.935 2.3C 19.5617 2.3 20.095 2.39333 20.535 2.58C 20.9817 2.76667 21.395 3.07 21.775 3.49L 20.805 4.61C 20.585 4.27667 20.325 4.03333 20.025 3.88C 19.7317 3.72 19.3783 3.64 18.965 3.64C 18.6183 3.64 18.3517 3.7 18.165 3.82C 17.9783 3.94 17.885 4.1 17.885 4.3C 17.885 4.46667 17.9817 4.60333 18.175 4.71C 18.375 4.81 18.7117 4.90333 19.185 4.99C 20.0983 5.15667 20.7483 5.4 21.135 5.72C 21.5283 6.04 21.725 6.49 21.725 7.07C 21.725 7.49 21.605 7.85333 21.365 8.16C 21.125 8.46667 20.7917 8.7 20.365 8.86C 19.945 9.02 19.4683 9.1 18.935 9.1C 18.1883 9.1 17.5817 9.01 17.115 8.83C 16.6483 8.64333 16.245 8.36 15.905 7.98L 16.785 6.78C 17.045 7.14 17.3383 7.39333 17.665 7.54C 17.9917 7.68667 18.385 7.76 18.845 7.76C 19.2117 7.76 19.485 7.71 19.665 7.61C 19.8517 7.50333 19.945 7.35333 19.945 7.16C 19.945 7.00667 19.845 6.88333 19.645 6.79C 19.4517 6.69 19.125 6.59667 18.665 6.51C 18.0983 6.39667 17.6283 6.26333 17.255 6.11C 16.8883 5.95 16.6017 5.73667 16.395 5.47C 16.195 5.20333 16.095 4.86333 16.095 4.45C 16.095 4.03667 16.205 3.66667 16.425 3.34C 16.6517 3.01333 16.9783 2.76 17.405 2.58C 17.8383 2.39333 18.3483 2.3 18.935 2.3Z"/>
</defs>
</svg>
