<svg width="18" height="22" viewBox="0 0 18 22" version="1.1" xmlns="http://www.w3.org/2000/svg" xmlns:xlink="http://www.w3.org/1999/xlink">
<title>file-plus</title>
<desc>Created using Figma</desc>
<g id="Canvas" transform="translate(-4206 -8834)">
<g id="file-plus">
<g id="Vector">
<use xlink:href="#path0_stroke" transform="translate(4207 8835)" fill="#2F80ED"/>
</g>
<g id="Vector">
<use xlink:href="#path1_stroke" transform="translate(4217 8835)" fill="#2F80ED"/>
</g>
<g id="Vector">
<use xlink:href="#path2_stroke" transform="translate(4215 8845)" fill="#2F80ED"/>
</g>
<g id="Vector">
<use xlink:href="#path3_stroke" transform="translate(4212 8848)" fill="#2F80ED"/>
</g>
</g>
</g>
<defs>
<path id="path0_stroke" d="M 10 0L 10.7071 -0.707107C 10.5196 -0.894643 10.2652 -1 10 -1L 10 0ZM 2 0L 2 -1L 2 0ZM 8.88178e-16 2L -1 2L 8.88178e-16 2ZM 8.88178e-16 18L -1 18L 8.88178e-16 18ZM 16 6L 17 6C 17 5.73478 16.8946 5.48043 16.7071 5.29289L 16 6ZM 10 -1L 2 -1L 2 1L 10 1L 10 -1ZM 2 -1C 1.20435 -1 0.441289 -0.68393 -0.12132 -0.12132L 1.29289 1.29289C 1.48043 1.10536 1.73478 1 2 1L 2 -1ZM -0.12132 -0.12132C -0.68393 0.441289 -1 1.20435 -1 2L 1 2C 1 1.73478 1.10536 1.48043 1.29289 1.29289L -0.12132 -0.12132ZM -1 2L -1 18L 1 18L 1 2L -1 2ZM -1 18C -1 18.7957 -0.68393 19.5587 -0.12132 20.1213L 1.29289 18.7071C 1.10536 18.5196 1 18.2652 1 18L -1 18ZM -0.12132 20.1213C 0.441288 20.6839 1.20435 21 2 21L 2 19C 1.73478 19 1.48043 18.8946 1.29289 18.7071L -0.12132 20.1213ZM 2 21L 14 21L 14 19L 2 19L 2 21ZM 14 21C 14.7957 21 15.5587 20.6839 16.1213 20.1213L 14.7071 18.7071C 14.5196 18.8946 14.2652 19 14 19L 14 21ZM 16.1213 20.1213C 16.6839 19.5587 17 18.7957 17 18L 15 18C 15 18.2652 14.8946 18.5196 14.7071 18.7071L 16.1213 20.1213ZM 17 18L 17 6L 15 6L 15 18L 17 18ZM 16.7071 5.29289L 10.7071 -0.707107L 9.29289 0.707107L 15.2929 6.70711L 16.7071 5.29289Z"/>
<path id="path1_stroke" d="M 0 6L -1 6C -1 6.55228 -0.552285 7 2.22045e-16 7L 0 6ZM -1 0L -1 6L 1 6L 1 0L -1 0ZM 0 7L 6 7L 6 5L 0 5L 0 7Z"/>
<path id="path2_stroke" d="M -1 6L -1 7L 1 7L 1 6L -1 6ZM 1 0L 1 -1L -1 -1L -1 0L 1 0ZM 1 6L 1 0L -1 0L -1 6L 1 6Z"/>
<path id="path3_stroke" d="M 0 -1L -1 -1L -1 1L 0 1L 0 -1ZM 6 1L 7 1L 7 -1L 6 -1L 6 1ZM 0 1L 6 1L 6 -1L 0 -1L 0 1Z"/>
</defs>
</svg>
