<svg width="22" height="24" viewBox="0 0 22 24" version="1.1" xmlns="http://www.w3.org/2000/svg" xmlns:xlink="http://www.w3.org/1999/xlink">
<title>box 2</title>
<desc>Created using Figma</desc>
<g id="Canvas" transform="translate(-1895 -7580)">
<g id="box 2">
<g id="Vector">
<use xlink:href="#path0_stroke" transform="translate(1896 7581)" fill="#3023AE"/>
</g>
<g id="Vector">
<use xlink:href="#path1_stroke" transform="translate(1896.32 7585.92)" fill="#3023AE"/>
</g>
<g id="Vector">
<use xlink:href="#path2_stroke" transform="translate(1906 7590.76)" fill="#3023AE"/>
</g>
</g>
</g>
<defs>
<path id="path0_stroke" d="M 18.89 4.20894L 18.4428 5.10337L 18.445 5.10447L 18.89 4.20894ZM 20 5.99894L 21 5.99894L 21 5.99841L 20 5.99894ZM 20 15.5289L 21 15.5295L 21 15.5289L 20 15.5289ZM 18.89 17.3189L 18.445 16.4234L 18.4428 16.4245L 18.89 17.3189ZM 10.89 21.3189L 10.4428 20.4245L 10.4425 20.4247L 10.89 21.3189ZM 9.10005 21.3189L 9.54755 20.4247L 9.54726 20.4245L 9.10005 21.3189ZM 1.10005 17.3189L 0.65007 18.212L 0.652835 18.2134L 1.10005 17.3189ZM 4.84482e-05 15.5189L 1.00005 15.5259L 1.00005 15.5189L 4.84482e-05 15.5189ZM 4.84482e-05 5.99894L -0.999952 5.99841L -0.999952 5.99894L 4.84482e-05 5.99894ZM 1.11005 4.20894L 1.55505 5.10447L 1.55726 5.10337L 1.11005 4.20894ZM 9.11005 0.208939L 8.66505 -0.686594L 8.66283 -0.685488L 9.11005 0.208939ZM 10 -4.65619e-08L 10 1L 10 -4.65619e-08ZM 10.4428 1.10337L 18.4428 5.10337L 19.3373 3.31451L 11.3373 -0.685488L 10.4428 1.10337ZM 18.445 5.10447C 18.6588 5.19996 18.7348 5.26916 18.8499 5.47299L 20.5496 4.41898C 20.2726 3.99037 19.7877 3.54907 19.335 3.31341L 18.445 5.10447ZM 18.8499 5.47299C 18.9813 5.66671 19.0095 5.76557 19 5.99947L 21 5.99841C 20.9902 5.48814 20.8104 4.8577 20.5496 4.41898L 18.8499 5.47299ZM 19 5.99894L 19 15.5289L 21 15.5289L 21 5.99894L 19 5.99894ZM 19 15.5284C 19.0095 15.7623 18.9813 15.8612 18.8499 16.0549L 20.5496 17.1089C 20.8104 16.6702 20.9902 16.0397 21 15.5295L 19 15.5284ZM 18.8499 16.0549C 18.7348 16.2587 18.6588 16.3279 18.445 16.4234L 19.335 18.2145C 19.7877 17.9788 20.2726 17.5375 20.5496 17.1089L 18.8499 16.0549ZM 18.4428 16.4245L 10.4428 20.4245L 11.3373 22.2134L 19.3373 18.2134L 18.4428 16.4245ZM 10.4425 20.4247C 10.2712 20.5179 10.19 20.5371 9.99505 20.5304L 9.99505 22.5304C 10.4215 22.5237 10.9532 22.398 11.3375 22.2132L 10.4425 20.4247ZM 9.99505 20.5304C 9.80008 20.5371 9.71891 20.5179 9.54755 20.4247L 8.65255 22.2132C 9.03691 22.398 9.56861 22.5237 9.99505 22.5304L 9.99505 20.5304ZM 9.54726 20.4245L 1.54726 16.4245L 0.652835 18.2134L 8.65284 22.2134L 9.54726 20.4245ZM 1.55002 16.4259C 1.33645 16.3291 1.26068 16.2593 1.14672 16.0543L -0.559845 17.0972C -0.285081 17.5284 0.19791 17.9734 0.650073 18.212L 1.55002 16.4259ZM 1.14672 16.0543C 1.01632 15.8594 0.988766 15.7601 1.00002 15.5259L -0.999927 15.512C -0.993857 16.0232 -0.81818 16.656 -0.559845 17.0972L 1.14672 16.0543ZM 1.00005 15.5189L 1.00005 5.99894L -0.999952 5.99894L -0.999952 15.5189L 1.00005 15.5189ZM 1.00005 5.99947C 0.990578 5.76557 1.01877 5.66671 1.15019 5.47299L -0.549532 4.41898C -0.810298 4.8577 -0.990086 5.48814 -0.999951 5.99841L 1.00005 5.99947ZM 1.15019 5.47299C 1.2653 5.26916 1.34132 5.19996 1.55505 5.10447L 0.665048 3.31341C 0.212349 3.54907 -0.272458 3.99037 -0.549532 4.41898L 1.15019 5.47299ZM 1.55726 5.10337L 9.55726 1.10337L 8.66283 -0.685488L 0.662835 3.31451L 1.55726 5.10337ZM 9.55505 1.10447C 9.72563 1.01229 9.80627 0.993361 10 1L 10 -1C 9.57619 -0.993361 9.04758 -0.869263 8.66505 -0.686592L 9.55505 1.10447ZM 10 1C 10.1938 0.993361 10.2745 1.01229 10.445 1.10447L 11.335 -0.686592C 10.9525 -0.869263 10.4239 -0.993361 10 -1L 10 1Z"/>
<path id="path1_stroke" d="M 9.68 4.84L 9.23279 5.73443L 9.68 5.95803L 10.1272 5.73443L 9.68 4.84ZM -0.447214 0.894427L 9.23279 5.73443L 10.1272 3.94557L 0.447214 -0.894427L -0.447214 0.894427ZM 10.1272 5.73443L 19.8072 0.894427L 18.9128 -0.894427L 9.23279 3.94557L 10.1272 5.73443Z"/>
<path id="path2_stroke" d="M 1 11.76L 1 0L -1 0L -1 11.76L 1 11.76Z"/>
</defs>
</svg>
