<svg width="14" height="16" viewBox="0 0 14 16" version="1.1" xmlns="http://www.w3.org/2000/svg" xmlns:xlink="http://www.w3.org/1999/xlink">
<title>Group 5</title>
<desc>Created using Figma</desc>
<g id="Canvas" transform="translate(-702 -5976)">
<g id="Group 5">
<g id="Stroke 93">
<use xlink:href="#path0_stroke" transform="translate(703 5983)" fill="#98AAB3"/>
</g>
<g id="Stroke 94">
<use xlink:href="#path1_stroke" transform="translate(706 5977)" fill="#98AAB3"/>
</g>
</g>
</g>
<defs>
<path id="path0_stroke" d="M 11 6.99478L 1 6.99478L 1 8.99479L 11 8.99479L 11 6.99478ZM 1 6.99478L 1 6.99544L -1 6.99544C -1 8.09998 -0.10367 8.99479 1 8.99479L 1 6.99478ZM 1 6.99544L 1 0.999348L -1 0.999348L -1 6.99544L 1 6.99544ZM 1 0.999348L 1 1L 1 -1C -0.10367 -1 -1 -0.105192 -1 0.999348L 1 0.999348ZM 1 1L 11 1L 11 -1L 1 -1L 1 1ZM 11 1L 11 0.999348L 13 0.999348C 13 -0.105192 12.1037 -1 11 -1L 11 1ZM 11 0.999348L 11 6.99544L 13 6.99544L 13 0.999348L 11 0.999348ZM 11 6.99544L 11 6.99478L 11 8.99479C 12.1037 8.99479 13 8.09998 13 6.99544L 11 6.99544Z"/>
<path id="path1_stroke" d="M -1 5.99609C -1 6.54837 -0.552285 6.99609 0 6.99609C 0.552285 6.99609 1 6.54837 1 5.99609L -1 5.99609ZM 5 5.99609C 5 6.54837 5.44772 6.99609 6 6.99609C 6.55228 6.99609 7 6.54837 7 5.99609L 5 5.99609ZM 1 5.99609L 1 2.99804L -1 2.99804L -1 5.99609L 1 5.99609ZM 1 2.99804C 1 1.89502 1.89467 1 3 1L 3 -1C 0.79133 -1 -1 0.789225 -1 2.99804L 1 2.99804ZM 3 1C 4.10533 1 5 1.89502 5 2.99804L 7 2.99804C 7 0.789225 5.20867 -1 3 -1L 3 1ZM 5 2.99804L 5 5.99609L 7 5.99609L 7 2.99804L 5 2.99804Z"/>
</defs>
</svg>
