<svg width="24" height="24" viewBox="0 0 24 24" version="1.1" xmlns="http://www.w3.org/2000/svg" xmlns:xlink="http://www.w3.org/1999/xlink">
<title>settings 2</title>
<desc>Created using Figma</desc>
<g id="Canvas" transform="translate(-435 -5503)">
<g id="settings 2">
<g id="Vector">
<use xlink:href="#path0_stroke" transform="translate(444 5512)" fill="#2E3092"/>
</g>
<g id="Vector">
<use xlink:href="#path1_stroke" transform="translate(436 5504)" fill="#2E3092"/>
</g>
</g>
</g>
<defs>
<path id="path0_stroke" d="M 5 3C 5 4.10457 4.10457 5 3 5L 3 7C 5.20914 7 7 5.20914 7 3L 5 3ZM 3 5C 1.89543 5 1 4.10457 1 3L -1 3C -1 5.20914 0.790861 7 3 7L 3 5ZM 1 3C 1 1.89543 1.89543 1 3 1L 3 -1C 0.790861 -1 -1 0.790861 -1 3L 1 3ZM 3 1C 4.10457 1 5 1.89543 5 3L 7 3C 7 0.790861 5.20914 -1 3 -1L 3 1Z"/>
<path id="path1_stroke" d="M 18.73 15.82L 18.0151 16.5193L 18.0229 16.5271L 18.73 15.82ZM 18.79 15.88L 18.0829 16.5871L 18.0833 16.5875L 18.79 15.88ZM 18.79 18.71L 18.0833 18.0025L 18.0825 18.0033L 18.79 18.71ZM 15.96 18.71L 16.6675 18.0033L 16.6671 18.0029L 15.96 18.71ZM 15.9 18.65L 16.6071 17.9429L 16.5993 17.9351L 15.9 18.65ZM 14.08 18.32L 14.474 19.2392L 14.4838 19.2349L 14.08 18.32ZM 13.08 19.83L 12.08 19.826L 12.08 19.83L 13.08 19.83ZM 9.08 19.91L 10.08 19.91L 10.08 19.8983L 10.0797 19.8866L 9.08 19.91ZM 8 18.4L 7.59623 19.3149L 7.62515 19.3276L 7.65482 19.3385L 8 18.4ZM 6.18 18.73L 5.48069 18.0151L 5.47288 18.0229L 6.18 18.73ZM 6.12 18.79L 5.41288 18.0829L 5.4125 18.0833L 6.12 18.79ZM 3.29 18.79L 3.9975 18.0833L 3.99671 18.0825L 3.29 18.79ZM 2.70343 17.375L 3.70343 17.375L 2.70343 17.375ZM 3.29 15.96L 3.99671 16.6675L 3.9971 16.6671L 3.29 15.96ZM 3.35 15.9L 4.05715 16.6072L 4.06486 16.5993L 3.35 15.9ZM 3.68 14.08L 2.76081 14.474L 2.76514 14.4838L 3.68 14.08ZM 2.17 13.08L 2.17399 12.08L 2.17 12.08L 2.17 13.08ZM 0 11.08L -1 11.08L 0 11.08ZM 2 9.08L 2 10.08L 2 9.08ZM 2.09 9.08L 2.09 10.08L 2.10169 10.08L 2.11338 10.0797L 2.09 9.08ZM 3.6 8L 2.68514 7.59623L 2.67237 7.62515L 2.66146 7.65482L 3.6 8ZM 3.27 6.18L 3.98491 5.48069L 3.97711 5.47289L 3.27 6.18ZM 3.21 6.12L 3.91711 5.41289L 3.91671 5.4125L 3.21 6.12ZM 3.21 3.29L 3.91671 3.9975L 3.9175 3.99671L 3.21 3.29ZM 6.04 3.29L 5.3325 3.99671L 5.33289 3.99711L 6.04 3.29ZM 6.1 3.35L 5.39285 4.05715L 5.40073 4.06486L 6.1 3.35ZM 7.92 3.68L 7.92 2.68L 7.70914 2.68L 7.51623 2.76514L 7.92 3.68ZM 8 3.68L 8 4.68L 8.20527 4.68L 8.39393 4.59914L 8 3.68ZM 9 2.17L 10 2.17399L 10 2.17L 9 2.17ZM 11 0L 11 -1L 11 0ZM 13 2.09L 12 2.09L 12 2.09399L 13 2.09ZM 14 3.6L 14.4038 2.68508L 14.3939 2.68086L 14 3.6ZM 15.82 3.27L 16.5193 3.98491L 16.5271 3.9771L 15.82 3.27ZM 15.88 3.21L 16.5871 3.9171L 16.5875 3.91671L 15.88 3.21ZM 17.295 2.62343L 17.295 3.62343L 17.295 2.62343ZM 18.71 3.21L 18.0025 3.91671L 18.0033 3.9175L 18.71 3.21ZM 18.71 6.04L 18.0033 5.3325L 18.0029 5.3329L 18.71 6.04ZM 18.65 6.1L 17.9428 5.39285L 17.9351 5.40073L 18.65 6.1ZM 18.32 7.92L 19.32 7.92L 19.32 7.70914L 19.2349 7.51623L 18.32 7.92ZM 18.32 8L 17.32 8L 17.32 8.20527L 17.4009 8.39393L 18.32 8ZM 19.83 9L 19.826 10L 19.83 10L 19.83 9ZM 19.91 13L 19.91 12L 19.906 12L 19.91 13ZM 17.4851 13.5962C 17.3023 14.0379 17.2276 14.6668 17.302 15.139L 19.27 14.7822C 19.2267 14.6056 19.2315 14.5653 19.3149 14.4038L 17.4851 13.5962ZM 17.302 15.139C 17.3982 15.6072 17.6889 16.1699 18.0151 16.5193L 19.4449 15.1207C 19.3101 14.9987 19.2915 14.9627 19.27 14.7822L 17.302 15.139ZM 18.0229 16.5271L 18.0829 16.5871L 19.4971 15.1729L 19.4371 15.1129L 18.0229 16.5271ZM 18.0833 16.5875C 18.2033 16.7005 18.2417 16.758 18.3003 16.9121L 20.1479 16.1462C 20.0052 15.8146 19.7487 15.431 19.4967 15.1725L 18.0833 16.5875ZM 18.3003 16.9121C 18.3679 17.0624 18.3814 17.1303 18.3766 17.295L 20.3766 17.295C 20.3718 16.9341 20.2816 16.4814 20.1479 16.1462L 18.3003 16.9121ZM 18.3766 17.295C 18.3814 17.4597 18.3679 17.5276 18.3003 17.6779L 20.1479 18.4438C 20.2816 18.1086 20.3718 17.6559 20.3766 17.295L 18.3766 17.295ZM 18.3003 17.6779C 18.2417 17.832 18.2033 17.8895 18.0833 18.0025L 19.4967 19.4175C 19.7487 19.159 20.0052 18.7754 20.1479 18.4438L 18.3003 17.6779ZM 18.0825 18.0033C 17.9695 18.1233 17.912 18.1617 17.7579 18.2203L 18.5238 20.0679C 18.8554 19.9252 19.239 19.6687 19.4975 19.4167L 18.0825 18.0033ZM 17.7579 18.2203C 17.6076 18.2879 17.5397 18.3014 17.375 18.2966L 17.375 20.2966C 17.7359 20.2918 18.1886 20.2016 18.5238 20.0679L 17.7579 18.2203ZM 17.375 18.2966C 17.2103 18.3014 17.1424 18.2879 16.9921 18.2203L 16.2262 20.0679C 16.5614 20.2016 17.0141 20.2918 17.375 20.2966L 17.375 18.2966ZM 16.9921 18.2203C 16.838 18.1617 16.7805 18.1233 16.6675 18.0033L 15.2525 19.4167C 15.511 19.6687 15.8946 19.9252 16.2262 20.0679L 16.9921 18.2203ZM 16.6671 18.0029L 16.6071 17.9429L 15.1929 19.3571L 15.2529 19.4171L 16.6671 18.0029ZM 16.5993 17.9351C 16.2499 17.6089 15.6872 17.3182 15.219 17.222L 14.8622 19.19C 15.0427 19.2115 15.0787 19.2301 15.2007 19.3649L 16.5993 17.9351ZM 15.219 17.222C 14.7468 17.1476 14.1179 17.2223 13.6762 17.4051L 14.4838 19.2349C 14.6453 19.1515 14.6856 19.1467 14.8622 19.19L 15.219 17.222ZM 13.6861 17.4009C 13.2614 17.5943 12.7869 17.9902 12.5206 18.3734L 14.1881 19.4777C 14.277 19.3242 14.307 19.2992 14.4739 19.2391L 13.6861 17.4009ZM 12.5206 18.3734C 12.2718 18.7682 12.0924 19.3595 12.08 19.826L 14.08 19.834C 14.0702 19.6569 14.0815 19.6195 14.1881 19.4777L 12.5206 18.3734ZM 12.08 19.83L 12.08 20L 14.08 20L 14.08 19.83L 12.08 19.83ZM 12.08 20C 12.08 20.2652 11.9746 20.5196 11.7871 20.7071L 13.2013 22.1213C 13.7639 21.5587 14.08 20.7957 14.08 20L 12.08 20ZM 11.7871 20.7071C 11.5996 20.8946 11.3452 21 11.08 21L 11.08 23C 11.8757 23 12.6387 22.6839 13.2013 22.1213L 11.7871 20.7071ZM 11.08 21C 10.8148 21 10.5604 20.8946 10.3729 20.7071L 8.95868 22.1213C 9.52129 22.6839 10.2843 23 11.08 23L 11.08 21ZM 10.3729 20.7071C 10.1854 20.5196 10.08 20.2652 10.08 20L 8.08 20C 8.08 20.7957 8.39607 21.5587 8.95868 22.1213L 10.3729 20.7071ZM 10.08 20L 10.08 19.91L 8.08 19.91L 8.08 20L 10.08 20ZM 10.0797 19.8866C 10.0574 19.4071 9.856 18.8038 9.58588 18.407L 7.95914 19.5704C 8.07423 19.7122 8.08714 19.7509 8.08027 19.9334L 10.0797 19.8866ZM 9.58588 18.407C 9.29764 18.0231 8.79174 17.6376 8.34518 17.4615L 7.65482 19.3385C 7.82973 19.391 7.86216 19.4157 7.95914 19.5704L 9.58588 18.407ZM 8.40377 17.4851C 7.96211 17.3023 7.33319 17.2276 6.861 17.302L 7.21782 19.27C 7.39442 19.2267 7.43466 19.2315 7.59623 19.3149L 8.40377 17.4851ZM 6.861 17.302C 6.39275 17.3982 5.83008 17.6889 5.48073 18.0151L 6.87926 19.4449C 7.00128 19.3101 7.03728 19.2915 7.21782 19.27L 6.861 17.302ZM 5.47288 18.0229L 5.41288 18.0829L 6.82712 19.4971L 6.88712 19.4371L 5.47288 18.0229ZM 5.4125 18.0833C 5.29949 18.2033 5.24198 18.2417 5.08794 18.3003L 5.85382 20.1479C 6.18538 20.0052 6.56902 19.7487 6.8275 19.4967L 5.4125 18.0833ZM 5.08794 18.3003C 4.9376 18.3679 4.86974 18.3814 4.705 18.3766L 4.705 20.3766C 5.06592 20.3718 5.51857 20.2816 5.85382 20.1479L 5.08794 18.3003ZM 4.705 18.3766C 4.54026 18.3814 4.4724 18.3679 4.32206 18.3003L 3.55618 20.1479C 3.89143 20.2816 4.34408 20.3718 4.705 20.3766L 4.705 18.3766ZM 4.32206 18.3003C 4.16802 18.2417 4.11051 18.2033 3.9975 18.0833L 2.5825 19.4967C 2.84098 19.7487 3.22462 20.0052 3.55618 20.1479L 4.32206 18.3003ZM 3.99671 18.0825C 3.87675 17.9695 3.83829 17.912 3.77965 17.7579L 1.93211 18.5238C 2.07477 18.8554 2.33134 19.239 2.58329 19.4975L 3.99671 18.0825ZM 3.77965 17.7579C 3.71211 17.6076 3.6986 17.5397 3.70343 17.375L 1.70343 17.375C 1.70825 17.7359 1.79835 18.1886 1.93211 18.5238L 3.77965 17.7579ZM 3.70343 17.375C 3.6986 17.2103 3.71211 17.1424 3.77965 16.9921L 1.93211 16.2262C 1.79835 16.5614 1.70825 17.0141 1.70343 17.375L 3.70343 17.375ZM 3.77965 16.9921C 3.83829 16.838 3.87675 16.7805 3.99671 16.6675L 2.58329 15.2525C 2.33134 15.511 2.07477 15.8946 1.93211 16.2262L 3.77965 16.9921ZM 3.9971 16.6671L 4.0571 16.6071L 2.6429 15.1929L 2.5829 15.2529L 3.9971 16.6671ZM 4.06486 16.5993C 4.39114 16.2499 4.68184 15.6872 4.77796 15.219L 2.81005 14.8622C 2.78854 15.0427 2.76994 15.0787 2.63514 15.2007L 4.06486 16.5993ZM 4.77796 15.219C 4.85235 14.7468 4.77771 14.1179 4.59486 13.6762L 2.76514 14.4838C 2.84852 14.6453 2.85329 14.6856 2.81005 14.8622L 4.77796 15.219ZM 4.59914 13.6861C 4.40569 13.2614 4.00976 12.7869 3.62661 12.5206L 2.52232 14.1881C 2.67575 14.277 2.70079 14.307 2.76086 14.4739L 4.59914 13.6861ZM 3.62661 12.5206C 3.23185 12.2718 2.64046 12.0924 2.17399 12.08L 2.16601 14.08C 2.34311 14.0702 2.38051 14.0815 2.52232 14.1881L 3.62661 12.5206ZM 2.17 12.08L 2 12.08L 2 14.08L 2.17 14.08L 2.17 12.08ZM 2 12.08C 1.73478 12.08 1.48043 11.9746 1.29289 11.7871L -0.12132 13.2013C 0.441288 13.7639 1.20435 14.08 2 14.08L 2 12.08ZM 1.29289 11.7871C 1.10536 11.5996 1 11.3452 1 11.08L -1 11.08C -1 11.8756 -0.683929 12.6387 -0.12132 13.2013L 1.29289 11.7871ZM 1 11.08C 1 10.8148 1.10536 10.5604 1.29289 10.3729L -0.12132 8.95868C -0.683929 9.52129 -1 10.2844 -1 11.08L 1 11.08ZM 1.29289 10.3729C 1.48043 10.1854 1.73478 10.08 2 10.08L 2 8.08C 1.20435 8.08 0.441288 8.39607 -0.12132 8.95868L 1.29289 10.3729ZM 2 10.08L 2.09 10.08L 2.09 8.08L 2 8.08L 2 10.08ZM 2.11338 10.0797C 2.5929 10.0574 3.19623 9.856 3.59305 9.58588L 2.42955 7.95914C 2.28778 8.07423 2.24909 8.08714 2.06662 8.08027L 2.11338 10.0797ZM 3.59305 9.58588C 3.97691 9.29764 4.36243 8.79174 4.53854 8.34518L 2.66146 7.65482C 2.609 7.82973 2.58428 7.86216 2.42955 7.95914L 3.59305 9.58588ZM 4.51486 8.40377C 4.69771 7.96211 4.77235 7.33319 4.69796 6.861L 2.73005 7.21782C 2.77329 7.39442 2.76852 7.43466 2.68514 7.59623L 4.51486 8.40377ZM 4.69796 6.861C 4.60184 6.39275 4.31114 5.83008 3.98486 5.48073L 2.55514 6.87926C 2.68994 7.00128 2.70854 7.03728 2.73005 7.21782L 4.69796 6.861ZM 3.97711 5.47289L 3.91711 5.41289L 2.50289 6.82711L 2.56289 6.88711L 3.97711 5.47289ZM 3.91671 5.4125C 3.79675 5.29948 3.75829 5.24197 3.69965 5.08794L 1.85211 5.85382C 1.99477 6.18538 2.25135 6.56902 2.50329 6.8275L 3.91671 5.4125ZM 3.69965 5.08794C 3.63211 4.9376 3.6186 4.86974 3.62343 4.705L 1.62343 4.705C 1.62825 5.06592 1.71835 5.51857 1.85211 5.85382L 3.69965 5.08794ZM 3.62343 4.705C 3.6186 4.54026 3.63211 4.4724 3.69965 4.32206L 1.85211 3.55618C 1.71835 3.89143 1.62825 4.34408 1.62343 4.705L 3.62343 4.705ZM 3.69965 4.32206C 3.75829 4.16803 3.79675 4.11052 3.91671 3.9975L 2.50329 2.5825C 2.25135 2.84098 1.99477 3.22462 1.85211 3.55618L 3.69965 4.32206ZM 3.9175 3.99671C 4.03052 3.87675 4.08803 3.83829 4.24206 3.77965L 3.47618 1.93211C 3.14462 2.07477 2.76098 2.33135 2.5025 2.58329L 3.9175 3.99671ZM 4.24206 3.77965C 4.3924 3.71211 4.46026 3.6986 4.625 3.70343L 4.625 1.70343C 4.26408 1.70825 3.81143 1.79835 3.47618 1.93211L 4.24206 3.77965ZM 4.625 3.70343C 4.78974 3.6986 4.8576 3.71211 5.00794 3.77965L 5.77382 1.93211C 5.43857 1.79835 4.98592 1.70825 4.625 1.70343L 4.625 3.70343ZM 5.00794 3.77965C 5.16197 3.83829 5.21948 3.87675 5.3325 3.99671L 6.7475 2.58329C 6.48902 2.33135 6.10538 2.07477 5.77382 1.93211L 5.00794 3.77965ZM 5.33289 3.99711L 5.39289 4.05711L 6.80711 2.64289L 6.74711 2.58289L 5.33289 3.99711ZM 5.40073 4.06486C 5.75008 4.39114 6.31275 4.68184 6.781 4.77796L 7.13782 2.81005C 6.95728 2.78854 6.92128 2.76994 6.79926 2.63514L 5.40073 4.06486ZM 6.781 4.77796C 7.25319 4.85235 7.88211 4.77771 8.32377 4.59486L 7.51623 2.76514C 7.35466 2.84852 7.31442 2.85329 7.13782 2.81005L 6.781 4.77796ZM 7.92 4.68L 8 4.68L 8 2.68L 7.92 2.68L 7.92 4.68ZM 8.39393 4.59914C 8.81858 4.40569 9.29307 4.00976 9.55944 3.62661L 7.89195 2.52232C 7.80296 2.67575 7.77296 2.70079 7.60607 2.76086L 8.39393 4.59914ZM 9.55944 3.62661C 9.80825 3.23185 9.9876 2.64046 9.99999 2.17399L 8.00001 2.16601C 8.00983 2.34311 7.99849 2.38051 7.89195 2.52232L 9.55944 3.62661ZM 10 2.17L 10 2L 8 2L 8 2.17L 10 2.17ZM 10 2C 10 1.73478 10.1054 1.48043 10.2929 1.29289L 8.87868 -0.12132C 8.31607 0.441288 8 1.20435 8 2L 10 2ZM 10.2929 1.29289C 10.4804 1.10536 10.7348 1 11 1L 11 -1C 10.2044 -1 9.44129 -0.683929 8.87868 -0.12132L 10.2929 1.29289ZM 11 1C 11.2652 1 11.5196 1.10536 11.7071 1.29289L 13.1213 -0.12132C 12.5587 -0.683929 11.7956 -1 11 -1L 11 1ZM 11.7071 1.29289C 11.8946 1.48043 12 1.73478 12 2L 14 2C 14 1.20435 13.6839 0.441288 13.1213 -0.12132L 11.7071 1.29289ZM 12 2L 12 2.09L 14 2.09L 14 2L 12 2ZM 12 2.09399C 12.0124 2.56046 12.1918 3.15185 12.4406 3.54661L 14.1081 2.44232C 14.0015 2.30051 13.9902 2.26311 14 2.08601L 12 2.09399ZM 12.4406 3.54661C 12.7069 3.92976 13.1814 4.32569 13.6061 4.51914L 14.3939 2.68086C 14.227 2.62079 14.197 2.59575 14.1081 2.44232L 12.4406 3.54661ZM 13.5962 4.51486C 14.0379 4.69771 14.6668 4.77235 15.139 4.69796L 14.7822 2.73005C 14.6056 2.77329 14.5653 2.76852 14.4038 2.68514L 13.5962 4.51486ZM 15.139 4.69796C 15.6072 4.60184 16.1699 4.31114 16.5193 3.98486L 15.1207 2.55514C 14.9987 2.68994 14.9627 2.70854 14.7822 2.73005L 15.139 4.69796ZM 16.5271 3.9771L 16.5871 3.9171L 15.1729 2.5029L 15.1129 2.5629L 16.5271 3.9771ZM 16.5875 3.91671C 16.7005 3.79675 16.758 3.75829 16.9121 3.69965L 16.1462 1.85211C 15.8146 1.99477 15.431 2.25134 15.1725 2.50329L 16.5875 3.91671ZM 16.9121 3.69965C 17.0624 3.63211 17.1303 3.6186 17.295 3.62343L 17.295 1.62343C 16.9341 1.62825 16.4814 1.71835 16.1462 1.85211L 16.9121 3.69965ZM 17.295 3.62343C 17.4597 3.6186 17.5276 3.63211 17.6779 3.69965L 18.4438 1.85211C 18.1086 1.71835 17.6559 1.62825 17.295 1.62343L 17.295 3.62343ZM 17.6779 3.69965C 17.832 3.75829 17.8895 3.79675 18.0025 3.91671L 19.4175 2.50329C 19.159 2.25135 18.7754 1.99477 18.4438 1.85211L 17.6779 3.69965ZM 18.0033 3.9175C 18.1233 4.03052 18.1617 4.08803 18.2203 4.24206L 20.0679 3.47618C 19.9252 3.14462 19.6687 2.76098 19.4167 2.5025L 18.0033 3.9175ZM 18.2203 4.24206C 18.2879 4.3924 18.3014 4.46026 18.2966 4.625L 20.2966 4.625C 20.2918 4.26408 20.2016 3.81143 20.0679 3.47618L 18.2203 4.24206ZM 18.2966 4.625C 18.3014 4.78974 18.2879 4.8576 18.2203 5.00794L 20.0679 5.77382C 20.2016 5.43857 20.2918 4.98592 20.2966 4.625L 18.2966 4.625ZM 18.2203 5.00794C 18.1617 5.16197 18.1233 5.21948 18.0033 5.3325L 19.4167 6.7475C 19.6687 6.48902 19.9252 6.10538 20.0679 5.77382L 18.2203 5.00794ZM 18.0029 5.3329L 17.9429 5.3929L 19.3571 6.8071L 19.4171 6.7471L 18.0029 5.3329ZM 17.9351 5.40073C 17.6089 5.75008 17.3182 6.31275 17.222 6.781L 19.19 7.13782C 19.2115 6.95728 19.2301 6.92128 19.3649 6.79926L 17.9351 5.40073ZM 17.222 6.781C 17.1476 7.25319 17.2223 7.88211 17.4051 8.32377L 19.2349 7.51623C 19.1515 7.35466 19.1467 7.31442 19.19 7.13782L 17.222 6.781ZM 17.32 7.92L 17.32 8L 19.32 8L 19.32 7.92L 17.32 7.92ZM 17.4009 8.39393C 17.5943 8.81858 17.9902 9.29307 18.3734 9.55944L 19.4777 7.89195C 19.3242 7.80296 19.2992 7.77296 19.2391 7.60607L 17.4009 8.39393ZM 18.3734 9.55944C 18.7682 9.80825 19.3595 9.9876 19.826 9.99999L 19.834 8.00001C 19.6569 8.00983 19.6195 7.99849 19.4777 7.89195L 18.3734 9.55944ZM 19.83 10L 20 10L 20 8L 19.83 8L 19.83 10ZM 20 10C 20.2652 10 20.5196 10.1054 20.7071 10.2929L 22.1213 8.87868C 21.5587 8.31607 20.7957 8 20 8L 20 10ZM 20.7071 10.2929C 20.8946 10.4804 21 10.7348 21 11L 23 11C 23 10.2043 22.6839 9.44129 22.1213 8.87868L 20.7071 10.2929ZM 21 11C 21 11.2652 20.8946 11.5196 20.7071 11.7071L 22.1213 13.1213C 22.6839 12.5587 23 11.7957 23 11L 21 11ZM 20.7071 11.7071C 20.5196 11.8946 20.2652 12 20 12L 20 14C 20.7957 14 21.5587 13.6839 22.1213 13.1213L 20.7071 11.7071ZM 20 12L 19.91 12L 19.91 14L 20 14L 20 12ZM 19.906 12C 19.4395 12.0124 18.8482 12.1918 18.4534 12.4406L 19.5577 14.1081C 19.6995 14.0015 19.7369 13.9902 19.914 14L 19.906 12ZM 18.4534 12.4406C 18.0702 12.7069 17.6743 13.1814 17.4809 13.6061L 19.3191 14.3939C 19.3792 14.227 19.4042 14.197 19.5577 14.1081L 18.4534 12.4406Z"/>
</defs>
</svg>
