<svg width="20" height="20" viewBox="0 0 20 20" version="1.1" xmlns="http://www.w3.org/2000/svg" xmlns:xlink="http://www.w3.org/1999/xlink">
<title>grid</title>
<desc>Created using Figma</desc>
<g id="Canvas" transform="translate(-523 -5266)">
<g id="grid">
<g id="Vector">
<use xlink:href="#path0_stroke" transform="translate(524 5267)" fill="#2E3092"/>
</g>
<g id="Vector">
<use xlink:href="#path0_stroke" transform="translate(535 5267)" fill="#2E3092"/>
</g>
<g id="Vector">
<use xlink:href="#path0_stroke" transform="translate(535 5278)" fill="#2E3092"/>
</g>
<g id="Vector">
<use xlink:href="#path0_stroke" transform="translate(524 5278)" fill="#2E3092"/>
</g>
</g>
</g>
<defs>
<path id="path0_stroke" d="M 0 0L 0 -1L -1 -1L -1 0L 0 0ZM 7 0L 8 0L 8 -1L 7 -1L 7 0ZM 7 7L 7 8L 8 8L 8 7L 7 7ZM 0 7L -1 7L -1 8L 0 8L 0 7ZM 0 1L 7 1L 7 -1L 0 -1L 0 1ZM 6 0L 6 7L 8 7L 8 0L 6 0ZM 7 6L 0 6L 0 8L 7 8L 7 6ZM 1 7L 1 0L -1 0L -1 7L 1 7Z"/>
</defs>
</svg>
