<svg width="20" height="20" viewBox="0 0 20 20" version="1.1" xmlns="http://www.w3.org/2000/svg" xmlns:xlink="http://www.w3.org/1999/xlink">
<title>search</title>
<desc>Created using Figma</desc>
<g id="Canvas" transform="translate(-1505 -5885)">
<g id="search">
<g id="Oval">
<use xlink:href="#path0_stroke" transform="translate(1506 5886)" fill="#98AAB3"/>
</g>
<g id="Shape">
<use xlink:href="#path1_stroke" transform="translate(1518.8 5898.8)" fill="#98AAB3"/>
</g>
</g>
</g>
<defs>
<path id="path0_stroke" d="M 7.5 16C 12.1944 16 16 12.1944 16 7.5L 14 7.5C 14 11.0899 11.0899 14 7.5 14L 7.5 16ZM 16 7.5C 16 2.80558 12.1944 -1 7.5 -1L 7.5 1C 11.0899 1 14 3.91015 14 7.5L 16 7.5ZM 7.5 -1C 2.80558 -1 -1 2.80558 -1 7.5L 1 7.5C 1 3.91015 3.91015 1 7.5 1L 7.5 -1ZM -1 7.5C -1 12.1944 2.80558 16 7.5 16L 7.5 14C 3.91015 14 1 11.0899 1 7.5L -1 7.5Z"/>
<path id="path1_stroke" d="M 5.90711 4.49289L 0.707107 -0.707107L -0.707107 0.707107L 4.49289 5.90711L 5.90711 4.49289Z"/>
</defs>
</svg>
