<svg width="24" height="19" viewBox="0 0 24 19" version="1.1" xmlns="http://www.w3.org/2000/svg" xmlns:xlink="http://www.w3.org/1999/xlink">
<title>users</title>
<desc>Created using Figma</desc>
<g id="Canvas" transform="translate(-429 -5388)">
<g id="users">
<g id="Vector">
<use xlink:href="#path0_stroke" transform="translate(430 5401)" fill="#2E3092"/>
</g>
<g id="Vector">
<use xlink:href="#path1_stroke" transform="translate(434 5389)" fill="#2E3092"/>
</g>
<g id="Vector">
<use xlink:href="#path2_stroke" transform="translate(449 5401.13)" fill="#2E3092"/>
</g>
<g id="Vector">
<use xlink:href="#path3_stroke" transform="translate(445 5389.13)" fill="#2E3092"/>
</g>
</g>
</g>
<defs>
<path id="path0_stroke" d="M 12 1.77636e-15L 12 -1L 12 1.77636e-15ZM 4 1.77636e-15L 4 -1L 4 1.77636e-15ZM 7.77156e-16 4L -1 4L 7.77156e-16 4ZM 17 6L 17 4L 15 4L 15 6L 17 6ZM 17 4C 17 2.67392 16.4732 1.40215 15.5355 0.464467L 14.1213 1.87868C 14.6839 2.44129 15 3.20435 15 4L 17 4ZM 15.5355 0.464467C 14.5979 -0.473215 13.3261 -1 12 -1L 12 1C 12.7956 1 13.5587 1.31607 14.1213 1.87868L 15.5355 0.464467ZM 12 -1L 4 -1L 4 1L 12 1L 12 -1ZM 4 -1C 2.67392 -1 1.40215 -0.473215 0.464466 0.464467L 1.87868 1.87868C 2.44129 1.31607 3.20435 1 4 1L 4 -1ZM 0.464466 0.464467C -0.473216 1.40215 -1 2.67392 -1 4L 1 4C 1 3.20435 1.31607 2.44129 1.87868 1.87868L 0.464466 0.464467ZM -1 4L -1 6L 1 6L 1 4L -1 4Z"/>
<path id="path1_stroke" d="M 7 4C 7 5.65685 5.65685 7 4 7L 4 9C 6.76142 9 9 6.76142 9 4L 7 4ZM 4 7C 2.34315 7 1 5.65685 1 4L -1 4C -1 6.76142 1.23858 9 4 9L 4 7ZM 1 4C 1 2.34315 2.34315 1 4 1L 4 -1C 1.23858 -1 -1 1.23858 -1 4L 1 4ZM 4 1C 5.65685 1 7 2.34315 7 4L 9 4C 9 1.23858 6.76142 -1 4 -1L 4 1Z"/>
<path id="path2_stroke" d="M 3 3.87L 4 3.87L 4 3.86925L 3 3.87ZM 4 5.87L 4 3.87L 2 3.87L 2 5.87L 4 5.87ZM 4 3.86925C 3.98569 2.81906 3.58444 1.64795 2.95171 0.809647L 1.37102 2.03498C 1.82427 2.59759 2.01299 3.14839 2 3.87075L 4 3.86925ZM 2.95171 0.809647C 2.29759 -0.0120811 1.26347 -0.692598 0.25 -0.968246L -0.25 0.968246C 0.452789 1.13573 0.939159 1.4558 1.37102 2.03498L 2.95171 0.809647Z"/>
<path id="path3_stroke" d="M 3.00784 3.875L 4.00784 3.875L 3.00784 3.875ZM -0.248039 0.96875C 0.456609 1.13515 0.944545 1.45531 1.37769 2.03548L 2.95759 0.809138C 2.30153 -0.0139062 1.26422 -0.694543 0.248039 -0.96875L -0.248039 0.96875ZM 1.37769 2.03548C 1.8323 2.599 2.02143 3.1511 2.00784 3.875L 4.00784 3.875C 3.99426 2.82256 3.59218 1.64884 2.95759 0.809138L 1.37769 2.03548ZM 2.00784 3.875C 2.02143 4.5989 1.8323 5.151 1.37769 5.71452L 2.95759 6.94086C 3.59218 6.10116 3.99426 4.92744 4.00784 3.875L 2.00784 3.875ZM 1.37769 5.71452C 0.944544 6.29469 0.456609 6.61485 -0.248039 6.78125L 0.248039 8.71875C 1.26422 8.44454 2.30153 7.76391 2.95759 6.94086L 1.37769 5.71452Z"/>
</defs>
</svg>
