<svg width="20" height="22" viewBox="0 0 20 22" version="1.1" xmlns="http://www.w3.org/2000/svg" xmlns:xlink="http://www.w3.org/1999/xlink">
<title>trash</title>
<desc>Created using Figma</desc>
<g id="Canvas" transform="translate(-3924 -8980)">
<g id="trash">
<g id="Vector">
<use xlink:href="#path0_stroke" transform="translate(3925 8985)" fill="#FFFFFF"/>
</g>
<g id="Vector">
<use xlink:href="#path1_stroke" transform="translate(3927 8981)" fill="#FFFFFF"/>
</g>
</g>
</g>
<defs>
<path id="path0_stroke" d="M 0 -1L -1 -1L -1 1L 0 1L 0 -1ZM 18 1L 19 1L 19 -1L 18 -1L 18 1ZM 0 1L 2 1L 2 -1L 0 -1L 0 1ZM 2 1L 18 1L 18 -1L 2 -1L 2 1Z"/>
<path id="path1_stroke" d="M 14 4L 15 4L 15 3L 14 3L 14 4ZM 0 18L -1 18L 0 18ZM 0 4L 0 3L -1 3L -1 4L 0 4ZM 2 4L 2 5L 4 5L 4 4L 2 4ZM 5 0L 5 -1L 5 0ZM 9 0L 9 -1L 9 0ZM 10 4L 10 5L 12 5L 12 4L 10 4ZM 13 4L 13 18L 15 18L 15 4L 13 4ZM 13 18C 13 18.2652 12.8946 18.5196 12.7071 18.7071L 14.1213 20.1213C 14.6839 19.5587 15 18.7957 15 18L 13 18ZM 12.7071 18.7071C 12.5196 18.8946 12.2652 19 12 19L 12 21C 12.7957 21 13.5587 20.6839 14.1213 20.1213L 12.7071 18.7071ZM 12 19L 2 19L 2 21L 12 21L 12 19ZM 2 19C 1.73478 19 1.48043 18.8946 1.29289 18.7071L -0.12132 20.1213C 0.441288 20.6839 1.20435 21 2 21L 2 19ZM 1.29289 18.7071C 1.10536 18.5196 1 18.2652 1 18L -1 18C -1 18.7957 -0.68393 19.5587 -0.12132 20.1213L 1.29289 18.7071ZM 1 18L 1 4L -1 4L -1 18L 1 18ZM 0 5L 14 5L 14 3L 0 3L 0 5ZM 4 4L 4 2L 2 2L 2 4L 4 4ZM 4 2C 4 1.73478 4.10536 1.48043 4.29289 1.29289L 2.87868 -0.12132C 2.31607 0.441288 2 1.20435 2 2L 4 2ZM 4.29289 1.29289C 4.48043 1.10536 4.73478 1 5 1L 5 -1C 4.20435 -1 3.44129 -0.68393 2.87868 -0.12132L 4.29289 1.29289ZM 5 1L 9 1L 9 -1L 5 -1L 5 1ZM 9 1C 9.26522 1 9.51957 1.10536 9.70711 1.29289L 11.1213 -0.12132C 10.5587 -0.68393 9.79565 -1 9 -1L 9 1ZM 9.70711 1.29289C 9.89464 1.48043 10 1.73478 10 2L 12 2C 12 1.20435 11.6839 0.441288 11.1213 -0.12132L 9.70711 1.29289ZM 10 2L 10 4L 12 4L 12 2L 10 2Z"/>
</defs>
</svg>
